<svg width="323" height="214" viewBox="-2 -4 323 222" fill="none" xmlns="http://www.w3.org/2000/svg">
  <path d="M291.543 164.397V173.79H273.827V211.64H262.579V173.79H244.919V164.397H291.543Z" fill="#B8EE4B"/>
  <path d="M221.456 213.215C207.059 213.215 199.466 208.097 199.522 197.017H209.646C210.039 201.46 213.695 204.272 221.456 204.329C228.768 204.329 232.761 201.854 232.761 198.142C232.761 194.88 230.118 193.249 224.493 192.293L218.644 191.281C209.702 189.706 200.816 187.344 200.816 177.052C200.816 168.109 208.352 162.823 221.569 162.823C233.886 162.823 242.434 167.153 242.547 178.851H232.48C231.749 174.577 228.43 171.709 221.344 171.709C214.932 171.709 211.558 173.902 211.558 177.558C211.558 180.426 213.864 182.226 218.701 183.126L223.819 184.025C232.817 185.656 243.897 187.175 243.897 198.48C243.897 207.872 236.192 213.215 221.456 213.215Z" fill="#B8EE4B"/>
  <path d="M173.07 213.215C158.504 213.215 150.292 206.353 150.292 191.955V164.397H161.597V191.674C161.597 199.211 165.365 203.766 173.07 203.766C180.775 203.766 184.6 199.211 184.6 191.674V164.397H195.848V191.955C195.848 206.353 187.637 213.215 173.07 213.215Z" fill="#B8EE4B"/>
  <path d="M122.989 213.215C107.692 213.215 97.1182 202.866 97.1182 188.019C97.1182 173.171 107.692 162.823 122.989 162.823C133.338 162.823 143.967 167.434 146.273 181.326H135.531C133.506 175.252 128.838 172.552 122.989 172.552C114.609 172.552 108.198 178.908 108.198 188.019C108.198 197.073 114.609 203.485 122.989 203.485C128.838 203.485 133.506 200.785 135.531 194.655H146.273C143.967 208.603 133.45 213.215 122.989 213.215Z" fill="#B8EE4B"/>
  <path d="M67.6826 213.215C52.2725 213.215 41.7554 202.866 41.7554 188.019C41.7554 173.171 52.2725 162.823 67.6826 162.823C83.149 162.823 93.6661 173.171 93.6661 188.019C93.6661 202.866 83.149 213.215 67.6826 213.215ZM67.6826 203.485C76.1188 203.485 82.5303 197.298 82.5303 188.019C82.5303 178.739 76.1188 172.552 67.6826 172.552C59.3027 172.552 52.8349 178.739 52.8349 188.019C52.8349 197.298 59.3027 203.485 67.6826 203.485Z" fill="#B8EE4B"/>
  <path d="M2 211.64V164.397H13.192V202.248H40.4128V211.64H2Z" fill="#B8EE4B"/>
  <!-- main shape with sharp apex -->
  <path fill-rule="evenodd" clip-rule="evenodd" d="M31.3848 126.719L2 140.22V151.187H24.9994L31.3848 126.719ZM74.4374 151.187H128.887L169.599 133.597L121.376 85.3743L87.5772 100.903L74.4374 151.187ZM75.6581 106.379L92.454 42.1016L131.209 80.8566L179.62 129.267L201.54 151.187H240.55L206.86 117.497L157.938 68.5762L81 0L43.301 121.245L35.4868 151.187H63.9492L75.6581 106.379ZM165.772 64.0585L252.9 151.187H291.305L240.158 101.377V87.139L265.249 112.569L287.315 90.5024V51.8847L321 18.189L311.229 8.418L277.539 42.1082L270.839 35.4087L296.269 9.77101L286.57 0L257.678 29.1278H241.801L165.772 64.0585Z" fill="#B8EE4B"/>
</svg>

